<svg xmlns="http://www.w3.org/2000/svg" xmlns:xlink="http://www.w3.org/1999/xlink" id="Layer_2" x="0px" y="0px" viewBox="0 0 533.5 414.5" style="enable-background:new 0 0 533.5 414.5;" xml:space="preserve"><style type="text/css">	.st0{fill:#0042FF;}	.st1{fill:none;}</style><path class="st0" d="M13.6,122.1V7.4c0,0,23.6,0,36.2,0s17.9,6.1,17.9,19.9s0,17.8,0,24.9S66,64.1,57.9,66.6c8.2,2,11,6.9,11,15.4 s0,22.6,0,25.9s1.3,11.3,3.1,14.2h-19c0,0-5-6.6-5-18.9s0-16,0-21.7c0-5.7-4.1-8.8-8.6-8.8s-5.1,0-5.1,0v49.5H13.6z M42.9,56.8 c1.1,0,4-0.9,4-4c0-3.1,0-17.2,0-21.6s-2.2-4.7-4.1-4.7s-8.5,0-8.5,0v30.2C34.3,56.7,41.8,56.8,42.9,56.8z"></path><path class="st0" d="M79.5,122.1L94.9,7.4h28.4l15.5,114.7h-19.7l-2.5-19.6h-15l-2.3,19.6H79.5z M109.1,35.9l-4.8,46.3h9.6 L109.1,35.9z"></path><path class="st0" d="M175.5,123.6c-22.4,0-28.2-13.3-28.2-25.5s0-55.4,0-66.1c0-15.3,7.5-26.5,28.2-26.5c21.5,0,28.6,10.4,28.6,26.6 v10.3h-20.8c0,0,0-7.5,0-11.3s-1.4-6.6-7.6-6.6s-7.6,3.2-7.6,6.3s0,63.4,0,67.8s4.4,6,7.6,6s7.7-1.3,7.7-5.7s0-12.2,0-12.2h20.7 c0,0,0,1.6,0,13.2C204.1,113.3,196,123.6,175.5,123.6z"></path><polygon class="st0" points="218.4,122.1 218.4,7.4 263.8,7.4 263.8,26.3 239.2,26.3 239.2,51.7 256.4,51.7 256.4,70.6 239.1,70.6  239.1,103.2 264.5,103.2 264.5,122.1 "></polygon><path class="st0" d="M7.4,264l15.4-114.7h28.4L66.7,264H47l-2.5-19.6h-15L27.3,264H7.4z M37,177.8l-4.8,46.3h9.6L37,177.8z"></path><path class="st0" d="M133.5,229.2c0,0,0,1.6,0,13.2c0,13.1-8.1,23.5-28.6,23.5c-22.4,0-28.2-13.3-28.2-25.5c0-12.2,0-55.4,0-66.1 c0-15.3,7.5-26.5,28.2-26.5c21.5,0,28.6,10.4,28.6,26.6v10.3h-20.8c0,0,0-7.5,0-11.3c0-3.8-1.4-6.6-7.6-6.6c-6.2,0-7.6,3.2-7.6,6.3 s0,63.4,0,67.8s4.4,6,7.6,6c3.2,0,7.7-1.3,7.7-5.7s0-12.2,0-12.2v-7.4h-9.2v-19h29.8V229.2z"></path><path class="st0" d="M142.1,264.2l15.4-114.7h28.4l15.5,114.7h-19.7l-2.5-19.6h-15l-2.3,19.6H142.1z M171.8,178l-4.8,46.3h9.6 L171.8,178z"></path><rect x="211.5" y="149.5" class="st0" width="20.6" height="114.7"></rect><polygon class="st0" points="246.6,264.2 246.6,149.5 266.9,149.5 286.5,206.9 286.5,149.5 307.3,149.5 307.3,264.2 286.9,264.2  266.9,203 266.9,264.2 "></polygon><path class="st0" d="M348.4,265.8c18.6,0,27.4-10.3,27.4-23.9c0-7.2,0-9.1,0-13.9c0-4.7-0.5-10.4-8.2-17.4s-16-14.7-20.4-18.9 s-5.1-9.4-5.1-12.3c0-2.9,0-3.9,0-7.2c0-3.3,3.1-5.5,6.5-5.5c2.5,0,6.6,0.8,6.6,5.4c0,4.6,0,12.6,0,12.6h20.7c0,0,0,0.3,0-13.1 s-7.3-23.8-26.8-23.8c-19.5,0-27.3,10.7-27.3,24.2c0,7.9,0,4.5,0,14.1c0,9.6,6.1,14.9,8.5,17s15.3,14,19.7,18.3s5.6,8.7,5.6,12.2 c0,3.4,0,5.9,0,8.4c0,2.5-3.3,5.1-6.7,5.1c-3.4,0-6.6-2.4-6.6-4.8s0-13.2,0-13.2h-20.4c0,0,0,0.2,0,13.5 C321.7,255.6,329.9,265.8,348.4,265.8z"></path><polygon class="st0" points="401.4,264.2 401.4,168.4 384.8,168.4 384.8,149.5 438.4,149.5 438.4,168.4 422.1,168.4 422.1,264.2 "></polygon><path class="st0" d="M26,372.5H5.5l1.4-24.9h7.5l3.2-56.2c0,0,22.9,0,38.6,0s17.1,12.2,17.1,18.6s-2.2,37.6-2.2,37.6h-7.5 c0,0-1.6,28.5-2.5,41.5c-0.9,13-11.1,17.9-18.4,17.9s-18.5,0-18.5,0l1-19.2c0,0,6.9,0,11,0s4.3-0.9,4.6-4.4 c0.3-3.6,1.8-35.8,1.8-35.8h7.6c0,0,1.8-33,1.9-34.7c0.1-1.6-1.1-2.5-3.1-2.5s-12.1,0-12.1,0l-1.9,37.1h-7.6L26,372.5z"></path><polygon class="st0" points="146,406.3 146,291.5 173.5,291.5 185.5,342.3 197.5,291.5 224.9,291.5 224.9,406.3 204.4,406.3  204.4,329.5 190.7,406.3 180.4,406.3 166.8,329.5 166.8,406.3 "></polygon><polygon class="st0" points="86.5,405.9 86.5,291.2 131.9,291.2 131.9,310.1 107.2,310.1 107.2,335.5 124.5,335.5 124.5,354.4  107.1,354.4 107.1,387 132.5,387 132.5,405.9 "></polygon><polygon class="st0" points="239.2,406.3 239.2,291.6 284.6,291.6 284.6,310.5 259.9,310.5 259.9,335.9 277.1,335.9 277.1,354.8  259.8,354.8 259.8,387.4 285.2,387.4 285.2,406.3 "></polygon><polygon class="st0" points="299.4,406.3 299.4,291.6 319.6,291.6 339.3,349 339.3,291.6 360.1,291.6 360.1,406.3 339.6,406.3  319.6,345.1 319.6,406.3 "></polygon><polygon class="st0" points="387.9,406.3 387.9,310.5 371.3,310.5 371.3,291.6 424.9,291.6 424.9,310.5 408.7,310.5 408.7,406.3 "></polygon><rect x="436.5" y="291.6" class="st0" width="20.6" height="114.7"></rect><polygon class="st1" points="1567820.2,1114.2 1567860.6,813.2 1567935.1,813.2 1567975.8,1114.2 1567924.1,1114.2  1567917.6,1062.8 1567878.4,1062.8 1567872.5,1114.2 "></polygon><polygon class="st1" points="1567910.6,1009.4 1567885.4,1009.4 1567898,888 "></polygon><path class="st0" d="M469.1,406.3l15.4-114.7h28.4l15.5,114.7h-19.7l-2.5-19.6h-15l-2.3,19.6H469.1z M498.7,320.1l-4.8,46.3h9.6 L498.7,320.1z"></path></svg>